<svg xmlns="http://www.w3.org/2000/svg" xmlns:xlink="http://www.w3.org/1999/xlink" viewBox="0 0 46.71 17.14"><defs><style>.cls-1{fill:none;}.cls-2{isolation:isolate;}.cls-3{clip-path:url(#clip-path);}.cls-4{mix-blend-mode:screen;}.cls-5{fill:#03938c;}.cls-6{fill:#ed6c1f;}</style><clipPath id="clip-path" transform="translate(-3.9 -2.42)"><rect class="cls-1" x="17.9" y="1.8" width="39.87" height="15.84"/></clipPath></defs><g class="cls-2"><g id="Layer_1" data-name="Layer 1"><g class="cls-3"><g class="cls-4"><path class="cls-5" d="M22.67,15.79l-.15-1.23h-.07A4,4,0,0,1,19.26,16a2.89,2.89,0,0,1-3.19-2.81c0-2.36,2.24-3.65,6.28-3.63v-.2A2.08,2.08,0,0,0,20,7.1a5.54,5.54,0,0,0-2.72.73l-.43-1.17a6.8,6.8,0,0,1,3.43-.87c3.2,0,4,2,4,4v3.66a12.79,12.79,0,0,0,.18,2.34Zm-.28-5c-2.07,0-4.42.3-4.42,2.2a1.63,1.63,0,0,0,1.79,1.7,2.58,2.58,0,0,0,2.52-1.64,1.59,1.59,0,0,0,.11-.56Z" transform="translate(-3.9 -2.42)"/></g><g class="cls-4"><path class="cls-5" d="M22.47,9.08c0-1.22,0-2.2-.08-3.1h1.55L24,7.61h0a3.75,3.75,0,0,1,3.38-1.85c2.3,0,4,2,4,4.84,0,3.42-2.08,5.11-4.32,5.11a3.33,3.33,0,0,1-2.93-1.5h0v5.17H22.47Zm1.71,2.54a4,4,0,0,0,.08.71,2.66,2.66,0,0,0,2.59,2c1.83,0,2.89-1.49,2.89-3.68,0-1.9-1-3.53-2.83-3.53A2.75,2.75,0,0,0,24.3,9.28a2.7,2.7,0,0,0-.12.71Z" transform="translate(-3.9 -2.42)"/></g><g class="cls-4"><path class="cls-5" d="M41.61,9.26c0-1.22,0-2.2-.08-3.1h1.55l.08,1.63h0a3.75,3.75,0,0,1,3.38-1.85c2.3,0,4,1.94,4,4.83,0,3.42-2.08,5.11-4.32,5.11a3.34,3.34,0,0,1-2.93-1.49h0v5.17H41.61Zm1.71,2.54a3.74,3.74,0,0,0,.08.7,2.67,2.67,0,0,0,2.59,2c1.83,0,2.89-1.5,2.89-3.68,0-1.9-1-3.54-2.83-3.54a2.76,2.76,0,0,0-2.61,2.15,2.7,2.7,0,0,0-.12.7Z" transform="translate(-3.9 -2.42)"/></g><g class="cls-4"><path class="cls-5" d="M36.12,15.36a5.26,5.26,0,0,1-2.48.56c-2.6,0-4.3-2-4.3-4.94S31.16,5.85,34,5.85a4.8,4.8,0,0,1,2.18.49L35.8,7.7A3.31,3.31,0,0,0,34,7.24c-2,0-3,1.64-3,3.66,0,2.24,1.29,3.62,3,3.62A4,4,0,0,0,35.85,14Z" transform="translate(-3.9 -2.42)"/></g><g class="cls-4"><path class="cls-5" d="M35.74,11.21a3.13,3.13,0,0,0,3.45,3.28A6.9,6.9,0,0,0,42,14l.31,1.24a8.7,8.7,0,0,1-3.35.59c-3.09,0-4.94-1.92-4.94-4.78s1.78-5.11,4.71-5.11c3.29,0,4.16,2.72,4.16,4.46a6.61,6.61,0,0,1-.06.81ZM41.1,10a2.5,2.5,0,0,0-2.53-2.8A2.94,2.94,0,0,0,35.76,10Z" transform="translate(-3.9 -2.42)"/></g></g></g><g id="Layer_2" data-name="Layer 2"><path class="cls-6" d="M12.84,5.64V17.71h-1V6.94H8V17.71H7V5.64Z" transform="translate(-3.9 -2.42)"/><path class="cls-6" d="M15.94,2.42V18.64H13.79V4.18H6.05V18.64H3.9V2.42Z" transform="translate(-3.9 -2.42)"/></g></g></svg>